<svg width="28" height="20" viewBox="0 0 28 20" fill="none" xmlns="http://www.w3.org/2000/svg">
<rect x="0.25" y="0.25" width="27.5" height="19.5" rx="1.75" fill="white" stroke="#F5F5F5" stroke-width="0.5"/>
<mask id="mask0" mask-type="alpha" maskUnits="userSpaceOnUse" x="0" y="0" width="28" height="20">
<rect x="0.25" y="0.25" width="27.5" height="19.5" rx="1.75" fill="white" stroke="white" stroke-width="0.5"/>
</mask>
<g mask="url(#mask0)">
<path fill-rule="evenodd" clip-rule="evenodd" d="M14.6667 20H28V0H14.6667V20Z" fill="#DE233C"/>
<mask id="path-4-outside-1" maskUnits="userSpaceOnUse" x="1.66667" y="1.66667" width="6" height="6" fill="black">
<rect fill="white" x="1.66667" y="1.66667" width="6" height="6"/>
<path fill-rule="evenodd" clip-rule="evenodd" d="M5.33333 2.66667H4V4H2.66667V5.33333H4V6.66667H5.33333V5.33333H6.66667V4H5.33333V2.66667Z"/>
</mask>
<path fill-rule="evenodd" clip-rule="evenodd" d="M5.33333 2.66667H4V4H2.66667V5.33333H4V6.66667H5.33333V5.33333H6.66667V4H5.33333V2.66667Z" fill="#CCCCCD"/>
<path d="M4 2.66667V2H3.33333V2.66667H4ZM5.33333 2.66667H6V2H5.33333V2.66667ZM4 4V4.66667H4.66667V4H4ZM2.66667 4V3.33333H2V4H2.66667ZM2.66667 5.33333H2V6H2.66667V5.33333ZM4 5.33333H4.66667V4.66667H4V5.33333ZM4 6.66667H3.33333V7.33333H4V6.66667ZM5.33333 6.66667V7.33333H6V6.66667H5.33333ZM5.33333 5.33333V4.66667H4.66667V5.33333H5.33333ZM6.66667 5.33333V6H7.33333V5.33333H6.66667ZM6.66667 4H7.33333V3.33333H6.66667V4ZM5.33333 4H4.66667V4.66667H5.33333V4ZM4 3.33333H5.33333V2H4V3.33333ZM4.66667 4V2.66667H3.33333V4H4.66667ZM2.66667 4.66667H4V3.33333H2.66667V4.66667ZM3.33333 5.33333V4H2V5.33333H3.33333ZM4 4.66667H2.66667V6H4V4.66667ZM4.66667 6.66667V5.33333H3.33333V6.66667H4.66667ZM5.33333 6H4V7.33333H5.33333V6ZM4.66667 5.33333V6.66667H6V5.33333H4.66667ZM6.66667 4.66667H5.33333V6H6.66667V4.66667ZM6 4V5.33333H7.33333V4H6ZM5.33333 4.66667H6.66667V3.33333H5.33333V4.66667ZM4.66667 2.66667V4H6V2.66667H4.66667Z" fill="#7B716A" fill-opacity="0.66" mask="url(#path-4-outside-1)"/>
<circle cx="4.66667" cy="4.66667" r="0.666667" fill="#7B716A"/>
</g>
</svg>
