<svg xmlns:dc="http://purl.org/dc/elements/1.1/" xmlns:cc="http://web.resource.org/cc/" xmlns:rdf="http://www.w3.org/1999/02/22-rdf-syntax-ns#" xmlns:svg="http://www.w3.org/2000/svg" xmlns="http://www.w3.org/2000/svg" xmlns:sodipodi="http://sodipodi.sourceforge.net/DTD/sodipodi-0.dtd" xmlns:inkscape="http://www.inkscape.org/namespaces/inkscape" version="1.0" width="600" height="300" id="svg19402" sodipodi:version="0.32" inkscape:version="0.44" sodipodi:docname="Flag_of_the_United_States_Virgin_Islands (bordered).svg" sodipodi:docbase="C:\Documents and Settings\Thomas Duke\My Documents">
  <metadata id="metadata1341">
    <rdf:RDF>
      <cc:Work rdf:about="">
        <dc:format>image/svg+xml</dc:format>
        <dc:type rdf:resource="http://purl.org/dc/dcmitype/StillImage"/>
      </cc:Work>
    </rdf:RDF>
  </metadata>
  <sodipodi:namedview id="base" pagecolor="#ffffff" bordercolor="#666666" borderopacity="1.0" inkscape:pageopacity="0.0" inkscape:pageshadow="2" inkscape:window-width="1028" inkscape:window-height="746" inkscape:zoom="1.2051506" inkscape:cx="319.85056" inkscape:cy="147.31992" inkscape:window-x="-4" inkscape:window-y="-4" inkscape:current-layer="svg19402"/>
  <defs id="defs19404"/>
  <rect style="opacity:1;fill:#ffffff;fill-opacity:1;fill-rule:evenodd;stroke:none;stroke-width:0.64999998;stroke-linecap:butt;stroke-linejoin:miter;stroke-miterlimit:4;stroke-dasharray:none;stroke-opacity:1" id="rect1433" width="600" height="300" x="0" y="-7.6293945e-006" rx="5.5511257e-015" ry="7.5502976e-016"/>
  <rect width="100" height="600" x="362" y="-1219" transform="matrix(0,1,-1,0,0,0)" style="fill:#ffffff;fill-opacity:1;fill-rule:evenodd;stroke:none;stroke-width:1pt;stroke-linecap:butt;stroke-linejoin:miter;stroke-opacity:1" id="rect3149"/>
  <path style="opacity:1;color:black;fill:black;fill-opacity:1;fill-rule:nonzero;stroke:none;stroke-width:10;stroke-linecap:butt;stroke-linejoin:miter;marker:none;marker-start:none;marker-mid:none;marker-end:none;stroke-miterlimit:3.86629224;stroke-dasharray:none;stroke-dashoffset:0;stroke-opacity:1;visibility:visible;display:inline;overflow:visible" d="M 0.31016708,0.16528936 L 0.31016708,299.95899 L 600.12581,299.95899 L 600.12581,0.16528936 L 0.31016708,0.16528936 z M 7.8078633,6.4109902 L 592.62812,6.4109902 L 592.62812,293.7133 L 7.8078633,293.7133 L 7.8078633,6.4109902 z " id="path5361"/>
  <g id="g2478" transform="matrix(0.769166,0,0,0.508222,14.62642,28.73486)">
    <rect y="0" x="0" style="fill:white;fill-opacity:1;stroke:none" id="whitebackground" height="496.06299" width="744.09448"/>
    <path style="font-size:12px;fill:#ffd600;fill-opacity:1;fill-rule:evenodd;stroke:black;stroke-width:1.48355401" sodipodi:nodetypes="cccccccccccccccccccscc" id="path592" d="M 437.9615,178.5944 C 437.9615,175.1741 436.8509,168.5331 433.236,166.2338 C 428.5951,163.8203 428.5951,162.3352 428.2237,159.1793 C 427.8526,156.0233 436.0205,150.0828 436.0205,150.0828 C 436.0205,150.0828 428.5951,146.7411 425.8106,147.1123 C 423.0261,147.4839 417.6426,148.0406 416.9,148.7832 C 416.1576,149.5259 412.0735,135.417 414.6725,133.1894 C 417.2713,130.9615 422.6548,138.3874 422.6548,138.3874 C 422.6548,138.3874 426.1819,130.2191 413.7443,114.6249 C 418.0141,84.17945 389.6117,77.12515 383.1145,77.31072 C 377.731,76.5681 363.8085,81.58053 361.5809,88.2636 C 354.5267,90.67695 354.1554,96.80332 354.1554,96.80332 C 354.1554,96.80332 339.6758,99.40197 337.8195,112.0258 C 346.3588,104.9715 351.9279,112.7686 351.9279,112.7686 C 351.9279,112.7686 359.3532,117.9663 363.2515,118.1522 C 367.1497,118.3379 359.5389,131.1471 357.3112,133.375 C 355.0836,135.6026 345.8019,144.1423 346.1731,144.6992 C 346.5444,145.256 353.4128,147.2982 353.0416,150.454 C 352.6704,153.6102 331.8792,163.2634 332.993,165.6767 C 338.3765,164.006 342.5743,165.2924 342.5743,165.2924 C 343.3247,170.5635 341.2249,176.6328 337.6428,178.5974 L 437.9615,178.5944 z "/>
    <path style="font-size:12px;fill:#ffd600;fill-opacity:1;fill-rule:evenodd;stroke:black;stroke-width:1.48355401;stroke-linecap:round;stroke-linejoin:round" sodipodi:nodetypes="ccccccccccccccccccc" id="path661" d="M 432.4588,317.7055 C 432.4588,317.7055 433.4045,328.8654 428.6758,333.5942 C 449.671,334.9183 461.0196,356.2926 461.2087,361.3998 C 461.3979,366.5067 454.7778,370.4789 454.7778,370.4789 C 454.7778,370.4789 457.0475,379.5582 448.3469,381.0715 C 448.5358,389.7725 442.4835,389.7725 442.4835,389.7725 C 442.4835,389.7725 440.2137,396.9602 433.2154,396.5819 C 431.1347,406.9853 420.3536,406.7962 420.3536,406.7962 C 420.3536,406.7962 414.1118,421.9285 404.8436,416.0647 C 398.9801,428.927 383.4703,428.3596 377.6068,416.0647 C 374.3915,415.8756 367.204,420.2259 362.8537,407.3636 C 353.2072,409.066 349.4245,396.7711 349.4245,396.7711 C 349.4245,396.7711 342.9935,396.2038 340.5345,389.7725 C 332.9689,388.2592 334.2929,380.6932 334.2929,380.6932 C 334.2929,380.6932 326.7271,378.6126 326.9163,370.2898 C 320.8636,366.6959 321.431,360.2648 321.431,360.2648 C 321.431,360.2648 326.1597,337.9447 353.5856,333.2159 C 349.2352,326.974 349.8028,317.8947 349.8028,317.8947 L 432.4588,317.7055 z "/>
    <g transform="matrix(-1.483523,0,0,1.483587,758.8501,27.39851)" style="fill:#f7f308;fill-opacity:1" id="g638">
      <path style="fill:#ffd600;fill-opacity:1;fill-rule:evenodd;stroke:black;stroke-width:1pt;stroke-linecap:butt;stroke-linejoin:round;stroke-opacity:1" sodipodi:nodetypes="ccccccccccccccccccccccc" id="path639" d="M 308.5777,109.3757 C 308.5777,109.3757 318.6549,120.2164 323.6935,112.1241 C 328.7322,104.0317 316.67,101.7414 316.5173,101.5887 C 316.3646,101.4361 309.4938,99.29855 308.883,86.6256 C 308.2723,73.95264 323.9989,65.70763 328.4268,64.63882 C 332.8547,63.57002 345.833,63.57002 345.833,63.57002 C 345.833,63.57002 393.3182,52.11868 398.2041,48.60687 C 403.0901,45.09506 447.9797,36.85005 447.9797,36.85005 C 447.9797,36.85005 455.1559,35.93391 454.5451,42.34673 C 453.9344,48.75954 447.9797,49.52293 447.9797,49.52293 C 447.9797,49.52293 453.0183,53.49274 452.4075,57.00455 C 451.7968,60.51636 447.9797,66.16562 440.04,65.24956 C 440.956,77.76985 423.55,79.75471 423.55,79.75471 C 423.55,79.75471 421.7177,97.77168 405.6857,96.85555 C 401.8685,109.223 387.5161,109.6811 387.5161,109.6811 C 387.5161,109.6811 380.798,118.0788 371.0261,118.6895 C 365.3767,132.7367 353.1619,128.7668 353.1619,128.7668 C 353.1619,128.7668 354.078,137.6226 348.4286,137.6226 C 351.3296,147.6999 340.489,149.0739 336.3665,147.0891 C 335.2977,149.2267 331.6331,155.7922 323.2355,151.6697 C 318.1969,159.1512 309.9518,155.6395 309.9518,155.6395 C 309.9518,155.6395 308.1196,161.5943 300.9434,159.3039 C 293.7672,157.0136 308.7304,109.6811 308.5777,109.3757 z "/>
      <path style="fill:#ffd600;fill-opacity:1;fill-rule:evenodd;stroke:black;stroke-width:1pt;stroke-linecap:round;stroke-linejoin:round;stroke-opacity:1" id="path640" d="M 339.7255,72.42581 C 339.7255,72.42581 328.5795,73.64735 329.9537,90.90077"/>
      <path style="fill:#ffd600;fill-opacity:1;fill-rule:evenodd;stroke:black;stroke-width:1pt;stroke-linecap:round;stroke-linejoin:round;stroke-opacity:1" id="path641" d="M 382.1721,54.56158 C 382.1721,54.56158 403.5482,69.21933 363.5445,73.79994"/>
      <path style="fill:#ffd600;fill-opacity:1;fill-rule:evenodd;stroke:black;stroke-width:1pt;stroke-linecap:round;stroke-linejoin:round;stroke-opacity:1" sodipodi:nodetypes="ccccccccc" id="path642" d="M 376.0647,71.81511 C 376.2174,72.12044 386.142,83.87718 367.8197,87.38899 C 376.5227,95.63408 360.1854,98.38234 360.1854,98.38234 C 360.1854,98.38234 363.5445,107.0855 353.7726,109.3757 C 356.979,118.3842 346.4437,117.9261 346.4437,117.9261 C 346.4437,117.9261 346.1384,128.9194 333.6181,128.7668 C 333.7708,136.2484 325.0677,136.7064 325.0677,136.7064 C 325.0677,136.7064 322.4721,144.7987 314.0743,142.3558 C 313.1582,148.0051 307.3562,146.7837 307.3562,146.7837"/>
      <path style="fill:#f7f308;fill-opacity:1;fill-rule:evenodd;stroke:black;stroke-width:1pt;stroke-linecap:round;stroke-linejoin:round;stroke-opacity:1" id="path643" d="M 309.7992,155.7921 C 309.7992,155.7921 309.3411,148.0052 311.1733,146.4783"/>
      <path style="fill:#f7f308;fill-opacity:1;fill-rule:evenodd;stroke:black;stroke-width:1pt;stroke-linecap:round;stroke-linejoin:round;stroke-opacity:1" id="path644" d="M 323.6935,151.5169 C 323.5408,151.3643 320.0291,144.3407 321.2506,143.1192"/>
      <path style="fill:#f7f308;fill-opacity:1;fill-rule:evenodd;stroke:black;stroke-width:1pt;stroke-linecap:round;stroke-linejoin:round;stroke-opacity:1" id="path645" d="M 336.5191,147.0891 L 327.0526,137.7752"/>
      <path style="fill:#f7f308;fill-opacity:1;fill-rule:evenodd;stroke:black;stroke-width:1pt;stroke-linecap:round;stroke-linejoin:round;stroke-opacity:1" id="path646" d="M 348.4286,137.9279 C 348.2759,137.7752 334.0762,128.9195 334.0762,128.9195"/>
      <path style="fill:#f7f308;fill-opacity:1;fill-rule:evenodd;stroke:black;stroke-width:1pt;stroke-linecap:round;stroke-linejoin:round;stroke-opacity:1" id="path647" d="M 353.4673,128.9195 C 353.3146,128.7668 345.3749,125.4078 345.0695,122.5067"/>
      <path style="fill:#ffd600;fill-opacity:1;fill-rule:evenodd;stroke:black;stroke-width:1pt;stroke-linecap:round;stroke-linejoin:round;stroke-opacity:1" id="path648" d="M 371.0261,118.6895 C 371.0261,118.6895 351.7877,122.812 348.4286,118.3841"/>
      <path style="fill:#ffd600;fill-opacity:1;fill-rule:evenodd;stroke:black;stroke-width:1pt;stroke-linecap:round;stroke-linejoin:round;stroke-opacity:1" id="path649" d="M 387.0581,109.5284 C 386.2947,109.5284 358.2005,112.5821 355.6049,109.0703"/>
      <path style="fill:#ffd600;fill-opacity:1;fill-rule:evenodd;stroke:black;stroke-width:1pt;stroke-linecap:round;stroke-linejoin:round;stroke-opacity:1" id="path650" d="M 405.6857,96.85551 C 405.2277,96.70277 372.4002,102.9629 363.0864,98.22964"/>
      <path style="fill:#ffd600;fill-opacity:1;fill-rule:evenodd;stroke:black;stroke-width:1pt;stroke-linecap:round;stroke-linejoin:round;stroke-opacity:1" id="path651" d="M 421.4124,79.90735 C 420.6489,79.90735 377.7442,90.29004 371.3314,87.08363"/>
      <path style="fill:#ffd600;fill-opacity:1;fill-rule:evenodd;stroke:black;stroke-width:1pt;stroke-linecap:round;stroke-linejoin:round;stroke-opacity:1" id="path652" d="M 437.7497,64.9442 C 437.4443,64.9442 386.6,76.85368 380.1872,71.96774"/>
      <path style="fill:#ffd600;fill-opacity:1;fill-rule:evenodd;stroke:black;stroke-width:1pt;stroke-linecap:round;stroke-linejoin:round;stroke-opacity:1" id="path653" d="M 444.3152,50.43904 C 444.1625,50.43904 395.6085,66.31833 391.486,62.34853"/>
    </g>
    <g transform="matrix(1.483523,0,0,1.483587,24.09617,27.91796)" style="fill:#f7f308;fill-opacity:1" id="g622">
      <path style="fill:#ffd600;fill-opacity:1;fill-rule:evenodd;stroke:black;stroke-width:1pt;stroke-linecap:butt;stroke-linejoin:round;stroke-opacity:1" sodipodi:nodetypes="ccccccccccccccccccccccc" id="path607" d="M 308.5777,109.3757 C 308.5777,109.3757 318.6549,120.2164 323.6935,112.1241 C 328.7322,104.0317 316.67,101.7414 316.5173,101.5887 C 316.3646,101.4361 309.4938,99.29855 308.883,86.6256 C 308.2723,73.95264 323.9989,65.70763 328.4268,64.63882 C 332.8547,63.57002 345.833,63.57002 345.833,63.57002 C 345.833,63.57002 393.3182,52.11868 398.2041,48.60687 C 403.0901,45.09506 447.9797,36.85005 447.9797,36.85005 C 447.9797,36.85005 455.1559,35.93391 454.5451,42.34673 C 453.9344,48.75954 447.9797,49.52293 447.9797,49.52293 C 447.9797,49.52293 453.0183,53.49274 452.4075,57.00455 C 451.7968,60.51636 447.9797,66.16562 440.04,65.24956 C 440.956,77.76985 423.55,79.75471 423.55,79.75471 C 423.55,79.75471 421.7177,97.77168 405.6857,96.85555 C 401.8685,109.223 387.5161,109.6811 387.5161,109.6811 C 387.5161,109.6811 380.798,118.0788 371.0261,118.6895 C 365.3767,132.7367 353.1619,128.7668 353.1619,128.7668 C 353.1619,128.7668 354.078,137.6226 348.4286,137.6226 C 351.3296,147.6999 340.489,149.0739 336.3665,147.0891 C 335.2977,149.2267 331.6331,155.7922 323.2355,151.6697 C 318.1969,159.1512 309.9518,155.6395 309.9518,155.6395 C 309.9518,155.6395 308.1196,161.5943 300.9434,159.3039 C 293.7672,157.0136 308.7304,109.6811 308.5777,109.3757 z "/>
      <path style="fill:#ffd600;fill-opacity:1;fill-rule:evenodd;stroke:black;stroke-width:1pt;stroke-linecap:round;stroke-linejoin:round;stroke-opacity:1" id="path608" d="M 339.7255,72.42581 C 339.7255,72.42581 328.5795,73.64735 329.9537,90.90077"/>
      <path style="fill:#ffd600;fill-opacity:1;fill-rule:evenodd;stroke:black;stroke-width:1pt;stroke-linecap:round;stroke-linejoin:round;stroke-opacity:1" id="path609" d="M 382.1721,54.56158 C 382.1721,54.56158 403.5482,69.21933 363.5445,73.79994"/>
      <path style="fill:#ffd600;fill-opacity:1;fill-rule:evenodd;stroke:black;stroke-width:1pt;stroke-linecap:round;stroke-linejoin:round;stroke-opacity:1" sodipodi:nodetypes="ccccccccc" id="path610" d="M 376.0647,71.81511 C 376.2174,72.12044 386.142,83.87718 367.8197,87.38899 C 376.5227,95.63408 360.1854,98.38234 360.1854,98.38234 C 360.1854,98.38234 363.5445,107.0855 353.7726,109.3757 C 356.979,118.3842 346.4437,117.9261 346.4437,117.9261 C 346.4437,117.9261 346.1384,128.9194 333.6181,128.7668 C 333.7708,136.2484 325.0677,136.7064 325.0677,136.7064 C 325.0677,136.7064 322.4721,144.7987 314.0743,142.3558 C 313.1582,148.0051 307.3562,146.7837 307.3562,146.7837"/>
      <path style="fill:#f7f308;fill-opacity:1;fill-rule:evenodd;stroke:black;stroke-width:1pt;stroke-linecap:round;stroke-linejoin:round;stroke-opacity:1" id="path611" d="M 309.7992,155.7921 C 309.7992,155.7921 309.3411,148.0052 311.1733,146.4783"/>
      <path style="fill:#f7f308;fill-opacity:1;fill-rule:evenodd;stroke:black;stroke-width:1pt;stroke-linecap:round;stroke-linejoin:round;stroke-opacity:1" id="path612" d="M 323.6935,151.5169 C 323.5408,151.3643 320.0291,144.3407 321.2506,143.1192"/>
      <path style="fill:#f7f308;fill-opacity:1;fill-rule:evenodd;stroke:black;stroke-width:1pt;stroke-linecap:round;stroke-linejoin:round;stroke-opacity:1" id="path613" d="M 336.5191,147.0891 L 327.0526,137.7752"/>
      <path style="fill:#ffd600;fill-opacity:1;fill-rule:evenodd;stroke:black;stroke-width:1pt;stroke-linecap:round;stroke-linejoin:round;stroke-opacity:1" id="path614" d="M 348.4286,137.9279 C 348.2759,137.7752 334.0762,128.9195 334.0762,128.9195"/>
      <path style="fill:#f7f308;fill-opacity:1;fill-rule:evenodd;stroke:black;stroke-width:1pt;stroke-linecap:round;stroke-linejoin:round;stroke-opacity:1" id="path615" d="M 353.4673,128.9195 C 353.3146,128.7668 345.3749,125.4078 345.0695,122.5067"/>
      <path style="fill:#ffd600;fill-opacity:1;fill-rule:evenodd;stroke:black;stroke-width:1pt;stroke-linecap:round;stroke-linejoin:round;stroke-opacity:1" id="path616" d="M 371.0261,118.6895 C 371.0261,118.6895 351.7877,122.812 348.4286,118.3841"/>
      <path style="fill:#ffd600;fill-opacity:1;fill-rule:evenodd;stroke:black;stroke-width:1pt;stroke-linecap:round;stroke-linejoin:round;stroke-opacity:1" id="path617" d="M 387.0581,109.5284 C 386.2947,109.5284 358.2005,112.5821 355.6049,109.0703"/>
      <path style="fill:#ffd600;fill-opacity:1;fill-rule:evenodd;stroke:black;stroke-width:1pt;stroke-linecap:round;stroke-linejoin:round;stroke-opacity:1" id="path618" d="M 405.6857,96.85551 C 405.2277,96.70277 372.4002,102.9629 363.0864,98.22964"/>
      <path style="fill:#ffd600;fill-opacity:1;fill-rule:evenodd;stroke:black;stroke-width:1pt;stroke-linecap:round;stroke-linejoin:round;stroke-opacity:1" id="path619" d="M 421.4124,79.90735 C 420.6489,79.90735 377.7442,90.29004 371.3314,87.08363"/>
      <path style="fill:#ffd600;fill-opacity:1;fill-rule:evenodd;stroke:black;stroke-width:1pt;stroke-linecap:round;stroke-linejoin:round;stroke-opacity:1" id="path620" d="M 437.7497,64.9442 C 437.4443,64.9442 386.6,76.85368 380.1872,71.96774"/>
      <path style="fill:#ffd600;fill-opacity:1;fill-rule:evenodd;stroke:black;stroke-width:1pt;stroke-linecap:round;stroke-linejoin:round;stroke-opacity:1" id="path621" d="M 444.3152,50.43904 C 444.1625,50.43904 395.6085,66.31833 391.486,62.34853"/>
    </g>
    <path style="font-size:12px;fill:#00cede;fill-opacity:1;fill-rule:evenodd;stroke:black;stroke-width:1.48355401" sodipodi:nodetypes="ccccccccccccc" id="path572" d="M 568.433,217.6413 C 568.433,217.6413 564.0039,280.9377 563.7894,280.7933 C 563.5749,280.6488 554.5515,269.7357 554.5515,269.7357 L 526.7051,357.0384 L 533.2143,376.0829 L 517.001,429.2464 L 503.6302,412.2856 L 482.0292,420.9711 L 499.3682,364.9789 L 515.3865,353.4684 L 544.2309,267.4618 L 528.2224,269.4659 L 568.433,217.6413 z "/>
    <path style="font-size:12px;fill:#00cede;fill-opacity:1;fill-rule:evenodd;stroke:black;stroke-width:1.48355401" sodipodi:nodetypes="cccccccccccc" id="path571" d="M 629.9723,243.7482 C 629.9723,243.7482 596.2919,297.5218 596.1705,297.2933 C 596.0492,297.0651 593.2195,283.1901 593.2195,283.1901 L 537.875,334.5297 L 478.7773,391.5547 L 478.6138,379.8095 L 458.393,377.3131 L 485.14,356.8475 L 498.8366,354.5907 L 585.1813,276.3287 L 570.1118,270.5667 L 629.9723,243.7482 z "/>
    <path style="font-size:12px;fill:none;fill-rule:evenodd;stroke:black;stroke-width:1.51501095" id="path574" d="M 478.8173,379.7165 C 479.1832,378.9536 509.5468,353.0102 509.5468,353.0102"/>
    <path style="font-size:12px;fill:#00cede;fill-opacity:1;fill-rule:evenodd;stroke:black;stroke-width:1.48355401" id="path570" d="M 611.9779,198.2589 C 611.9779,198.2589 595.5157,259.5371 595.3329,259.3542 C 595.1499,259.1715 588.3823,246.733 588.3823,246.733 L 521.6189,361.4241 L 524.3625,381.3625 L 500.401,425.2634 L 490.5237,406.0567 L 467.6597,410.4469 L 493.2675,363.9851 L 511.1929,355.7534 L 578.6877,242.5256 L 562.5915,241.4282 L 611.9779,198.2589 z "/>
    <path style="font-size:12px;fill:none;fill-rule:evenodd;stroke:black;stroke-width:1.48355401" id="path573" d="M 490.8897,405.3256 C 490.8897,404.9597 513.9366,364.7172 513.9366,364.7172"/>
    <path style="font-size:12px;fill:#00cede;fill-opacity:1;fill-rule:evenodd;stroke:black;stroke-width:1.48355401" sodipodi:nodetypes="cccccccccccccc" id="path563" d="M 37.63169,186.7351 L 77.87254,186.9182 L 73.84847,196.6128 L 91.40804,266.1227 L 112.626,196.7957 L 105.1265,186.7352 L 147.0137,186.7352 L 138.0508,196.4301 L 103.4804,295.7558 L 112.443,308.7431 L 72.20221,308.7431 L 81.16491,295.7558 L 47.32607,196.7955 L 37.63169,186.7351 z "/>
    <path style="font-size:12px;fill:#00cede;fill-opacity:1;fill-rule:evenodd;stroke:black;stroke-width:1.48355401" sodipodi:nodetypes="ccccccccc" id="path566" d="M 654.9625,189.1132 L 693.1912,189.1132 L 686.9722,197.7103 L 686.7894,298.8654 L 695.3863,308.3773 L 654.9625,308.3773 L 663.0106,298.1339 L 662.8279,197.8932 L 654.9625,189.1132 z "/>
    <path style="font-size:12px;fill:none;fill-rule:evenodd;stroke:black;stroke-width:1.48355401" id="path583" d="M 353.5862,97.64021 C 353.5862,97.64021 358.4886,103.7972 360.3128,104.3674 C 362.1369,104.9373 372.3978,109.954 371.8279,113.3745 C 371.2577,116.7949 364.5311,118.5052 364.5311,118.5052"/>
    <path style="font-size:12px;fill:none;fill-rule:evenodd;stroke:black;stroke-width:1.48355401" id="path584" d="M 361.6809,88.51911 L 371.9417,98.32448 C 371.9417,98.32448 373.7659,106.7614 381.0626,106.0775 C 388.3593,105.3934 387.3332,102.3148 387.3332,102.3148 C 387.3332,102.3148 378.5544,96.1582 371.5997,97.64021"/>
    <path style="font-size:12px;fill:#188400;fill-opacity:1;fill-rule:evenodd;stroke:black;stroke-width:1.48355401;stroke-linejoin:round" sodipodi:nodetypes="ccccccccccccccccccccccccccccccccccccccccccccccccccccccccccccccccccccccc" id="path585" d="M 299.1163,397.5377 L 312.8209,386.1555 C 312.8209,386.1555 309.8013,379.8834 298.884,380.1157 C 288.6638,372.9149 271.0105,355.9575 271.0105,355.9575 L 262.1838,332.0316 C 262.1838,332.0316 269.3845,329.9411 271.0105,324.1338 C 272.6364,318.3265 270.5459,311.1256 269.849,310.4286 C 269.1522,309.7317 261.9515,311.5901 259.8611,314.6098 C 257.7704,317.6297 254.5185,329.2443 249.6407,325.2952 C 244.7628,321.3463 250.3374,316.9328 250.3374,316.9328 C 250.3374,316.9328 255.2154,310.8933 254.983,307.6411 C 254.7508,304.389 248.4793,294.6328 247.7823,294.4006 C 247.0855,294.1683 245.6919,307.1765 243.8336,308.5703 C 241.9754,309.9642 239.4203,315.7713 235.7037,312.5193 C 231.9873,309.2672 237.562,304.389 237.562,304.389 C 237.562,304.389 248.0147,298.8142 237.7941,280.4633 C 234.7746,288.3612 228.9678,293.4714 228.9678,293.4714 C 228.9678,293.4714 226.1802,298.3496 223.6252,294.1683 C 221.0702,289.9871 226.6447,286.0383 226.6447,286.0383 C 226.6447,286.0383 235.7037,280.6956 235.9361,272.7975 C 236.1682,264.8997 225.0188,255.8403 225.0188,255.8403 C 225.0188,255.8403 224.3221,270.4746 220.8379,272.3329 C 217.3537,274.1912 215.9598,277.2113 212.0112,273.9591 C 208.0623,270.7069 215.0308,263.506 215.0308,263.506 C 215.0308,263.506 227.1095,251.4268 226.4125,244.4582 C 225.7157,237.4895 225.0188,236.328 225.0188,236.328 C 225.0188,236.328 215.9598,241.903 214.7986,244.6905 C 213.6372,247.478 209.9206,257.4664 205.2749,254.4465 C 202.0231,250.73 208.0623,243.5289 208.0623,243.5289 C 208.0623,243.5289 212.4756,238.6506 212.2434,236.5602 C 212.0112,234.4694 208.5268,228.1978 201.7907,222.1583 C 200.8617,220.3 200.3972,212.8667 200.3972,212.8667 C 200.3972,212.8667 195.287,218.9064 195.5194,222.1583 C 195.7515,225.4104 195.0546,231.9143 195.7515,239.1155 C 196.4485,246.3164 190.1768,236.7925 190.1768,236.7925 L 191.3382,213.5635 C 191.3382,213.5635 182.5115,202.8782 171.8265,198.9292 C 175.7755,204.7365 175.5431,210.3113 175.5431,210.3113 C 175.5431,210.3113 171.1298,219.8353 171.1298,222.3904 C 171.1298,224.9458 176.2399,236.0956 185.7636,243.5289 C 171.362,227.9656 153.4764,233.0758 148.134,230.0561 C 150.6891,233.0758 158.3545,244.4582 157.4253,247.478 C 156.4962,250.4976 171.1298,256.7695 171.1298,256.7695 L 186.6927,257.0019 C 186.6927,257.0019 194.3579,262.3443 195.0546,265.8288 C 195.7515,269.3133 183.9052,259.3248 179.2596,259.557 C 174.614,259.7893 162.3031,257.931 162.3031,257.931 C 162.3031,257.931 169.7361,264.8997 169.9684,267.9196 C 170.2006,270.9392 173.4526,277.9079 177.866,279.7664 C 182.2793,281.6246 194.1255,282.3216 194.1255,282.3216 C 194.1255,282.3216 199.2357,279.3019 200.1648,282.5538 C 201.094,285.8059 193.4287,288.361 193.4287,288.361 C 193.4287,288.361 185.5311,288.3612 182.9761,286.2705 C 180.421,284.1798 179.9564,280.6954 168.5747,279.3016 C 167.4133,288.8257 174.8462,298.5817 174.8462,298.5817 C 174.8462,298.5817 206.204,296.0267 205.9719,302.7631 C 205.7396,309.4994 179.9564,303.4599 179.0273,301.3692 C 178.0982,299.2787 180.1888,314.6099 186.228,317.862 C 192.2673,321.1139 205.7396,319.4881 207.3656,318.7912 C 208.9916,318.0943 215.0308,317.3975 215.0308,320.8818 C 215.0308,324.3661 184.3697,327.1536 183.9052,326.2243 C 183.4406,325.2952 188.5508,338.0712 200.8617,337.3744 C 213.1727,336.6775 218.5151,332.9607 218.5151,332.9607 C 218.5151,332.9607 225.948,331.567 226.6447,334.587 C 227.3416,337.6066 219.212,339.0004 219.212,339.0004 C 219.212,339.0004 199.7003,339.4649 199.0036,338.5357 C 198.3066,337.6066 203.4168,350.8472 217.1213,350.6149 C 227.3416,349.6857 228.0384,345.2721 230.129,344.5754 C 233.1487,343.8785 239.6527,343.8786 240.5817,344.1108 C 241.5108,344.3431 257.7704,355.7253 257.7704,355.7253 L 299.1163,397.5377 z "/>
    <path style="font-size:12px;fill:none;fill-rule:evenodd;stroke:black;stroke-width:1.48355401;stroke-linecap:round;stroke-linejoin:round" id="path593" d="M 179.2596,214.028 C 179.2596,214.028 178.795,236.328 189.9446,243.0645"/>
    <path style="font-size:12px;fill:none;fill-rule:evenodd;stroke:black;stroke-width:1.48355401;stroke-linecap:round;stroke-linejoin:round" id="path594" d="M 202.7199,231.6822 C 202.7199,231.6822 210.153,243.0645 197.6098,247.2456"/>
    <path style="font-size:12px;fill:none;fill-rule:evenodd;stroke:black;stroke-width:1.48355401;stroke-linecap:round;stroke-linejoin:round" id="path595" d="M 164.1613,239.3477 C 164.1613,239.3477 163.2322,252.1237 185.7636,251.1945"/>
    <path style="font-size:12px;fill:none;fill-rule:evenodd;stroke:black;stroke-width:1.48355401;stroke-linecap:round;stroke-linejoin:round" id="path596" d="M 219.9087,250.4976 C 219.9087,250.4976 216.1922,259.5569 207.1332,259.0924"/>
    <path style="font-size:12px;fill:none;fill-rule:evenodd;stroke:black;stroke-width:1.48355401;stroke-linecap:round;stroke-linejoin:round" id="path597" d="M 228.2707,270.9392 C 228.2707,272.1007 229.8969,284.412 218.0505,284.1798"/>
    <path style="font-size:12px;fill:none;fill-rule:evenodd;stroke:black;stroke-width:1.48355401;stroke-linecap:round;stroke-linejoin:round" id="path598" d="M 171.5944,265.8288 C 171.5944,265.8288 186.4604,275.1205 193.1964,274.4236"/>
    <path style="font-size:12px;fill:none;fill-rule:evenodd;stroke:black;stroke-width:1.48355401;stroke-linecap:round;stroke-linejoin:round" id="path599" d="M 174.8462,288.361 C 174.8462,288.361 181.8147,295.7943 194.5901,293.9361"/>
    <path style="font-size:12px;fill:none;fill-rule:evenodd;stroke:black;stroke-width:1.48355401;stroke-linecap:round;stroke-linejoin:round" id="path600" d="M 236.1682,293.4714 C 236.1682,294.4006 233.8455,301.6017 228.7354,302.531"/>
    <path style="font-size:12px;fill:none;fill-rule:evenodd;stroke:black;stroke-width:1.48355401;stroke-linecap:round;stroke-linejoin:round" id="path601" d="M 186.4604,309.9642 C 186.4604,309.9642 192.0351,317.1652 206.6688,313.2161"/>
    <path style="font-size:12px;fill:none;fill-rule:evenodd;stroke:black;stroke-width:1.48355401;stroke-linecap:round;stroke-linejoin:round" id="path602" d="M 250.1052,306.9442 C 250.1052,306.9442 247.7823,318.3265 241.7431,318.5588"/>
    <path style="font-size:12px;fill:none;fill-rule:evenodd;stroke:black;stroke-width:1.48355401;stroke-linecap:round;stroke-linejoin:round" id="path603" d="M 264.2743,319.2557 C 264.2743,319.2557 259.6287,332.9607 247.7823,330.8702"/>
    <path style="font-size:12px;fill:none;fill-rule:evenodd;stroke:black;stroke-width:1.48355401;stroke-linecap:round;stroke-linejoin:round" id="path604" d="M 209.6883,343.646 C 209.6883,343.646 214.3339,347.8276 225.7157,342.7171"/>
    <path style="font-size:12px;fill:none;fill-rule:evenodd;stroke:black;stroke-width:1.48355401;stroke-linecap:round;stroke-linejoin:round" id="path605" d="M 196.9129,329.7088 C 197.8421,329.7088 203.649,334.5867 217.586,327.1536"/>
    <path style="font-size:12px;fill:none;fill-rule:evenodd;stroke:black;stroke-width:1.48355401;stroke-linecap:round;stroke-linejoin:round" id="path606" d="M 299.0941,380.4663 C 299.0941,380.4663 290.4153,384.3524 298.8351,397.436"/>
    <path style="font-size:12px;fill:#ffd600;fill-opacity:1;fill-rule:evenodd;stroke:black;stroke-width:1.48355401" sodipodi:nodetypes="ccccccccccccccc" id="path654" d="M 469.5925,266.3246 C 469.5925,266.3246 478.7141,275.0813 478.8964,276.9059 C 479.0789,278.7304 481.2682,287.3048 483.6398,288.582 C 486.0112,289.8591 495.3153,297.339 496.5924,300.258 C 497.8694,303.1771 506.0787,315.5828 506.0787,315.5828 C 506.0787,315.5828 513.7408,331.2727 518.8489,332.5498 C 523.957,333.8268 538.369,331.6377 541.2879,338.5702 C 544.2067,345.503 543.4771,355.537 543.4771,355.537 C 543.4771,355.537 540.0109,358.6386 538.369,356.8141 C 536.7272,354.9897 533.8082,365.9361 528.7001,362.8347 C 521.7424,348.0184 503.5325,350.4367 503.5325,350.4367 C 503.5325,350.4367 507.538,344.2257 491.3018,338.7526 C 465.9438,343.1313 458.4641,316.6777 458.4641,316.6777 L 444.0306,304.1585 L 469.5925,266.3246 z "/>
    <path style="font-size:12px;fill:#ffd600;fill-opacity:1;fill-rule:evenodd;stroke:black;stroke-width:1.48355401" id="path655" d="M 454.9981,303.9069 L 466.3087,309.1976 L 465.3966,299.5284"/>
    <path style="font-size:12px;fill:#ffd600;fill-opacity:1;fill-rule:evenodd;stroke:black;stroke-width:1.48355401" id="path656" d="M 471.0521,302.4472 L 481.4505,307.5557 L 477.2546,299.1634"/>
    <path style="font-size:12px;fill:#ffd600;fill-opacity:1;fill-rule:evenodd;stroke:black;stroke-width:1.48355401" id="path657" d="M 470.5046,288.7646 L 480.7207,294.2375 L 475.9776,283.6561"/>
    <path style="font-size:12px;fill:#ffd600;fill-opacity:1;fill-rule:evenodd;stroke:black;stroke-width:1.48355401" id="path658" d="M 486.741,338.9352 C 486.741,338.9352 475.0654,323.6102 475.2478,323.6102 C 475.4304,323.6102 495.1329,327.4416 495.1329,327.4416 L 487.8355,311.7517 L 505.8962,316.4951"/>
    <path style="font-size:12px;fill:#ffd600;fill-opacity:1;fill-rule:evenodd;stroke:black;stroke-width:1.48355401" id="path659" d="M 520.3082,341.3069 C 520.3082,341.3069 531.8014,343.861 531.4366,363.0169"/>
    <path style="font-size:12px;fill:#ffd600;fill-opacity:1;fill-rule:evenodd;stroke:black;stroke-width:1.48355401" id="path660" d="M 526.3285,338.3878 C 526.3285,338.3878 538.734,337.6581 538.0042,356.9966"/>
    <path style="font-size:12px;fill:#ffd600;fill-opacity:1;fill-rule:evenodd;stroke:black;stroke-width:1.48355401" sodipodi:nodetypes="ccccccccccsccccc" id="path670" d="M 312.3795,268.6983 C 312.3795,268.6983 303.2579,277.4552 303.0756,279.2797 C 302.8931,281.1042 299.1906,288.5436 296.8191,289.8209 C 294.4476,291.0979 286.2784,299.3345 285.0014,302.2534 C 283.7244,305.1726 275.8933,317.9566 275.8933,317.9566 C 275.8933,317.9566 266.9072,330.9984 261.7991,332.2753 C 255.5563,332.796 243.6031,334.0114 240.6841,340.944 C 237.7653,347.8767 242.2779,358.4782 245.6825,358.4782 C 250.7894,360.7479 253.1206,363.0928 254.7626,361.2684 C 257.5393,362.0922 255.9513,364.4684 261.0596,361.3671 C 257.177,356.3916 257.5914,351.583 261.4836,350.3227 C 265.3659,348.9942 271.6881,354.9028 271.6881,354.9028 C 271.6881,354.9028 273.9903,344.159 290.2266,338.686 C 315.5846,343.0645 322.3984,322.6011 324.1735,317.7202 C 328.1722,312.2784 334.3895,310.8302 339.4976,307.3853 L 312.3795,268.6983 z "/>
    <path style="font-size:12px;fill:none;fill-rule:evenodd;stroke:black;stroke-width:1.48355401;stroke-linecap:round;stroke-linejoin:round" sodipodi:nodetypes="ccc" id="path671" d="M 327.4176,304.062 L 315.6633,310.2402 L 316.5755,301.9021"/>
    <path style="font-size:12px;fill:none;fill-rule:evenodd;stroke:black;stroke-width:1.48355401;stroke-linecap:round;stroke-linejoin:round" sodipodi:nodetypes="ccc" id="path672" d="M 311.8075,302.3805 L 300.7433,307.4889 L 305.8268,298.8749"/>
    <path style="font-size:12px;fill:none;fill-rule:evenodd;stroke:black;stroke-width:1.48355401;stroke-linecap:round;stroke-linejoin:round" sodipodi:nodetypes="ccc" id="path673" d="M 312.133,288.9196 L 302.5825,293.0615 L 305.9945,286.0299"/>
    <path style="font-size:12px;fill:none;fill-rule:evenodd;stroke:black;stroke-width:1.48355401;stroke-linecap:round;stroke-linejoin:round" sodipodi:nodetypes="ccccc" id="path674" d="M 295.6748,338.8683 C 297.4497,335.3185 306.4629,324.209 306.2805,324.209 C 306.098,324.209 287.7267,328.0404 287.7267,328.0404 L 293.6928,312.5723 L 277.6287,315.7628"/>
    <path style="font-size:12px;fill:none;fill-rule:evenodd;stroke:black;stroke-width:1.48355401;stroke-linecap:round;stroke-linejoin:round" sodipodi:nodetypes="cc" id="path675" d="M 262.4204,341.2216 C 262.4204,341.2216 248.4683,343.7756 253.9399,361.0402"/>
    <path style="font-size:12px;fill:none;fill-rule:evenodd;stroke:black;stroke-width:1.48355401" sodipodi:nodetypes="cc" id="path676" d="M 256.4001,338.87 C 256.4001,338.87 241.1575,339.2752 246.4268,358.2354"/>
    <path style="font-size:12px;fill:none;fill-rule:evenodd;stroke:black;stroke-width:1.854442;stroke-linecap:round;stroke-linejoin:round" sodipodi:nodetypes="ccc" id="path662" d="M 424.3255,324.8933 C 424.3255,324.7039 429.4324,337.7557 418.462,340.0255 C 446.6445,337.9449 454.5887,370.1007 454.5887,370.1007"/>
    <path style="font-size:12px;fill:none;fill-rule:evenodd;stroke:black;stroke-width:1.48355401;stroke-linecap:round;stroke-linejoin:round" sodipodi:nodetypes="ccc" id="path663" d="M 417.8946,329.6221 C 417.8946,329.6221 420.3536,339.0797 412.2202,343.8085 C 441.7268,350.2396 448.536,380.8823 448.536,380.8823"/>
    <path style="font-size:12px;fill:none;fill-rule:evenodd;stroke:black;stroke-width:1.48355401;stroke-linecap:round;stroke-linejoin:round" sodipodi:nodetypes="ccc" id="path664" d="M 411.6528,333.9725 C 411.6528,334.3509 414.49,346.2675 405.2219,348.159 C 423.569,343.2409 442.6725,389.7725 442.6725,389.7725"/>
    <path style="font-size:12px;fill:none;fill-rule:evenodd;stroke:black;stroke-width:1.48355401;stroke-linecap:round;stroke-linejoin:round" sodipodi:nodetypes="ccc" id="path665" d="M 402.7631,339.2689 C 402.7631,339.2689 407.4917,348.348 398.7911,351.1854 C 415.2465,352.8876 420.5427,406.9855 420.5427,406.9855"/>
    <path style="font-size:12px;fill:none;fill-rule:evenodd;stroke:black;stroke-width:1.48355401;stroke-linecap:round;stroke-linejoin:round" sodipodi:nodetypes="ccc" id="path666" d="M 397.0888,342.4843 C 397.0888,342.4843 399.7366,352.5095 391.2253,355.5358 C 408.4374,346.4568 405.2219,416.443 405.2219,416.443"/>
    <path style="font-size:12px;fill:none;fill-rule:evenodd;stroke:black;stroke-width:1.48355401;stroke-linecap:round;stroke-linejoin:round" sodipodi:nodetypes="ccc" id="path667" d="M 385.7402,343.0519 C 385.7402,343.0519 382.1463,353.6444 390.0904,355.7249 C 374.3915,351.3746 377.4177,416.443 377.4177,416.443"/>
    <path style="font-size:12px;fill:none;fill-rule:evenodd;stroke:black;stroke-width:1.48355401;stroke-linecap:round;stroke-linejoin:round" sodipodi:nodetypes="ccc" id="path668" d="M 378.3634,338.8905 C 378.3634,338.8905 375.9047,348.5373 385.5509,353.4552 C 369.4738,343.2411 362.8537,407.7419 362.8537,407.7419"/>
    <path style="font-size:12px;fill:none;fill-rule:evenodd;stroke:black;stroke-width:1.48355401;stroke-linecap:round;stroke-linejoin:round" id="path669" d="M 403.898,347.7808 C 403.898,347.7808 433.2152,375.9644 433.0261,396.7711"/>
    <path style="font-size:12px;fill:none;fill-rule:evenodd;stroke:black;stroke-width:1.48355401;stroke-linecap:round;stroke-linejoin:round" id="path677" d="M 357.5577,325.0825 C 357.5577,325.2716 353.9639,340.2146 364.3668,340.5929"/>
    <path style="font-size:12px;fill:none;fill-rule:evenodd;stroke:black;stroke-width:1.48355401;stroke-linecap:round;stroke-linejoin:round" id="path678" d="M 364.9342,330.5677 C 364.9342,330.9461 362.0971,343.2409 370.4194,343.8085"/>
    <path style="font-size:12px;fill:none;fill-rule:evenodd;stroke:black;stroke-width:1.48355401;stroke-linecap:round;stroke-linejoin:round" id="path679" d="M 371.5542,334.1617 C 371.5542,334.1617 366.4474,346.4567 378.9309,348.159"/>
    <path style="font-size:12px;fill:none;fill-rule:evenodd;stroke:black;stroke-width:1.48355401;stroke-linecap:round;stroke-linejoin:round" id="path680" d="M 377.9851,348.3481 C 377.796,348.3481 353.5856,370.8572 349.8028,396.9602"/>
    <path style="font-size:12px;fill:none;fill-rule:evenodd;stroke:black;stroke-width:1.48355401;stroke-linecap:round;stroke-linejoin:round" id="path681" d="M 373.4457,346.0783 C 373.2566,346.0783 342.6152,365.1826 340.5345,389.5832"/>
    <path style="font-size:12px;fill:none;fill-rule:evenodd;stroke:black;stroke-width:1.48355401;stroke-linecap:round;stroke-linejoin:round" id="path682" d="M 366.6365,342.8626 C 366.6365,342.8626 332.5906,362.7238 334.1038,380.6932"/>
    <path style="font-size:12px;fill:none;fill-rule:evenodd;stroke:black;stroke-width:1.48355401;stroke-linecap:round;stroke-linejoin:round" id="path683" d="M 358.5033,338.5122 C 358.5033,338.5122 333.1579,343.2411 326.9163,370.4789"/>
    <path style="font-size:12px;fill:none;fill-rule:evenodd;stroke:black;stroke-width:1.48355401" sodipodi:nodetypes="csssscs" id="path689" d="M 305.0503,164.2362 C 305.0503,164.2362 329.5606,177.7723 347.1201,177.0406 C 364.6799,176.3088 391.0193,164.9678 391.0193,164.9678 C 391.0193,164.9678 414.4321,178.1379 433.455,176.3088 C 452.478,174.4798 478.8173,164.2362 478.8173,164.2362 C 494.548,242.7699 458.6969,313.2556 391.0193,344.9618 C 319.1955,312.158 284.3201,233.2583 305.0503,164.2362 z "/>
    <g transform="matrix(1.483523,0,0,1.483587,24.09617,27.91796)" id="g697">
      <path style="fill:#c41e3a;fill-opacity:1;fill-rule:evenodd;stroke:black;stroke-width:1pt;stroke-linecap:butt;stroke-linejoin:miter;stroke-opacity:1" sodipodi:nodetypes="csssscs" id="path581" d="M 189.3831,91.88431 C 189.3831,91.88431 205.9048,101.0082 217.7412,100.515 C 229.5777,100.0217 247.3323,92.37747 247.3323,92.37747 C 247.3323,92.37747 263.1142,101.2547 275.937,100.0218 C 288.7599,98.78891 306.5145,91.88431 306.5145,91.88431 C 317.118,144.8194 292.9519,192.3297 247.3323,213.701 C 198.918,191.5899 175.4095,138.4081 189.3831,91.88431 z "/>
      <path style="fill:#002b7f;fill-opacity:1;fill-rule:evenodd;stroke:black;stroke-width:1pt;stroke-linecap:butt;stroke-linejoin:miter;stroke-opacity:1" sodipodi:nodetypes="cccsscccc" id="path582" d="M 189.3831,91.88431 C 189.3831,91.88431 193.5135,94.16527 199.1235,96.38458 C 204.7335,98.60397 211.823,100.7616 217.7412,100.515 C 229.5777,100.0217 247.3323,92.37747 247.3323,92.37747 C 247.3323,92.37747 263.1142,101.2547 275.937,100.0218 C 288.7599,98.78891 306.5145,91.88431 306.5145,91.88431 C 309.1038,107.2552 310.3983,115.105 308.1173,130.3527 L 186.0849,129.6438 C 184.5334,114.427 184.6156,108.2416 189.3831,91.88431 z "/>
      <path style="font-size:12px;fill:white;fill-opacity:1;fill-rule:evenodd" sodipodi:nodetypes="ccccc" id="path586" d="M 193.7436,130.2257 L 193.6655,159.0746 L 201.7127,173.4886 L 201.6346,130.2257 L 193.7436,130.2257 z "/>
      <path style="font-size:12px;fill:white;fill-opacity:1;fill-rule:evenodd" sodipodi:nodetypes="ccccc" id="path587" d="M 213.949,130.3262 L 214.0423,189.7815 L 221.9333,196.969 L 221.84,130.3262 L 213.949,130.3262 z "/>
      <path style="font-size:12px;fill:white;fill-opacity:1;fill-rule:evenodd" sodipodi:nodetypes="ccccc" id="path588" d="M 233.7697,130.5463 L 233.7697,206.3032 L 241.7388,210.6391 L 241.6607,130.5463 L 233.7697,130.5463 z "/>
      <path style="font-size:12px;fill:white;fill-opacity:1;fill-rule:evenodd" sodipodi:nodetypes="ccccc" id="path589" d="M 302.0426,130.8742 L 302.2133,155.5542 L 294.722,170.7093 L 294.1516,130.8742 L 302.0426,130.8742 z "/>
      <path style="font-size:12px;fill:white;fill-opacity:1;fill-rule:evenodd" sodipodi:nodetypes="ccccc" id="path590" d="M 282.4857,130.6967 L 282.2071,188.0212 L 274.5014,195.3014 L 274.5947,130.6967 L 282.4857,130.6967 z "/>
      <path style="font-size:12px;fill:white;fill-opacity:1;fill-rule:evenodd" sodipodi:nodetypes="ccccc" id="path591" d="M 261.9239,130.6389 L 262.0165,205.3767 L 253.9548,210.3611 L 254.0329,130.6389 L 261.9239,130.6389 z "/>
    </g>
    <path style="font-size:12px;fill:none;fill-rule:evenodd;stroke:black;stroke-width:1.48355401" sodipodi:nodetypes="csssscs" id="path707" d="M 305.0503,164.2362 C 305.0503,164.2362 329.5606,177.7723 347.1201,177.0406 C 364.6799,176.3088 391.0193,164.9678 391.0193,164.9678 C 391.0193,164.9678 414.4321,178.1379 433.455,176.3088 C 452.478,174.4798 478.8173,164.2362 478.8173,164.2362 C 494.548,242.7699 458.6969,313.2556 391.0193,344.9618 C 319.1955,312.158 284.3201,233.2583 305.0503,164.2362 z "/>
  </g>
</svg>