<svg width="24" height="24" viewBox="0 0 24 24" fill="none" xmlns="http://www.w3.org/2000/svg">
<path fill-rule="evenodd" clip-rule="evenodd" d="M13.7139 16.2861C13.7139 16.0588 13.6236 15.8408 13.4628 15.6801C13.3021 15.5194 13.0841 15.4291 12.8568 15.4291H2.92707L6.60723 11.7506C6.76816 11.5897 6.85857 11.3714 6.85857 11.1438C6.85857 10.9162 6.76816 10.698 6.60723 10.537C6.4463 10.3761 6.22803 10.2857 6.00044 10.2857C5.77285 10.2857 5.55458 10.3761 5.39365 10.537L0.25137 15.6793C0.171556 15.7589 0.108233 15.8535 0.0650272 15.9576C0.021821 16.0618 -0.000418663 16.1734 -0.000418663 16.2861C-0.000418663 16.3988 0.021821 16.5105 0.0650272 16.6146C0.108233 16.7187 0.171556 16.8133 0.25137 16.8929L5.39365 22.0352C5.55458 22.1961 5.77285 22.2865 6.00044 22.2865C6.22803 22.2865 6.4463 22.1961 6.60723 22.0352C6.76816 21.8743 6.85857 21.656 6.85857 21.4284C6.85857 21.2008 6.76816 20.9825 6.60723 20.8216L2.92707 17.1432H12.8568C13.0841 17.1432 13.3021 17.0529 13.4628 16.8921C13.6236 16.7314 13.7139 16.5134 13.7139 16.2861Z" fill="#F8F9FC"/>
<path fill-rule="evenodd" clip-rule="evenodd" d="M10.2861 7.71471C10.2861 7.4874 10.3764 7.26941 10.5372 7.10868C10.6979 6.94796 10.9159 6.85766 11.1432 6.85766H21.0729L17.3928 3.17921C17.2318 3.01828 17.1414 2.80001 17.1414 2.57242C17.1414 2.34483 17.2318 2.12657 17.3928 1.96564C17.5537 1.8047 17.772 1.71429 17.9996 1.71429C18.2271 1.71429 18.4454 1.8047 18.6063 1.96564L23.7486 7.10792C23.8284 7.18753 23.8918 7.28211 23.935 7.38623C23.9782 7.49035 24.0004 7.60198 24.0004 7.71471C24.0004 7.82744 23.9782 7.93906 23.935 8.04319C23.8918 8.14731 23.8284 8.24189 23.7486 8.3215L18.6063 13.4638C18.4454 13.6247 18.2271 13.7151 17.9996 13.7151C17.772 13.7151 17.5537 13.6247 17.3928 13.4638C17.2318 13.3028 17.1414 13.0846 17.1414 12.857C17.1414 12.6294 17.2318 12.4111 17.3928 12.2502L21.0729 8.57175H11.1432C10.9159 8.57175 10.6979 8.48146 10.5372 8.32073C10.3764 8.16 10.2861 7.94201 10.2861 7.71471Z" fill="#F8F9FC"/>
</svg>
